<svg width="25" height="18" viewBox="0 0 25 18" fill="none" xmlns="http://www.w3.org/2000/svg">
<path d="M23.2596 16.2355C23.027 16.2353 22.7971 16.1791 22.5847 16.0704C22.5352 16.0452 22.4881 16.0145 22.444 15.9786L18.1498 12.5085C17.932 12.3325 17.7543 12.099 17.6316 11.8276C17.5089 11.5563 17.4448 11.255 17.4447 10.9493V6.2167C17.4448 5.91095 17.5089 5.6097 17.6316 5.33834C17.7543 5.06697 17.932 4.83345 18.1498 4.65746L22.444 1.18731C22.4881 1.15146 22.5352 1.12071 22.5847 1.09552C22.8376 0.966416 23.1147 0.911916 23.3906 0.936976C23.6666 0.962036 23.9327 1.06586 24.1648 1.23902C24.397 1.41217 24.5877 1.64917 24.7198 1.92848C24.8518 2.20778 24.921 2.52054 24.921 2.83834V14.3276C24.921 14.8335 24.746 15.3186 24.4344 15.6763C24.1228 16.034 23.7002 16.2349 23.2596 16.2349V16.2355ZM13.0835 17.1659H3.53048C2.59443 17.1648 1.697 16.7375 1.03512 15.9776C0.373231 15.2178 0.000962091 14.1875 0 13.1129V4.05307C0.000962091 2.97847 0.373231 1.9482 1.03512 1.18834C1.697 0.428478 2.59443 0.0011045 3.53048 0H13.1085C14.0378 0.00126194 14.9289 0.425671 15.586 1.18013C16.2432 1.93459 16.6129 2.9575 16.614 4.02446V13.1129C16.613 14.1875 16.2408 15.2178 15.5789 15.9776C14.917 16.7375 14.0196 17.1648 13.0835 17.1659Z" fill="white"/>
</svg>
