<svg width="28" height="28" viewBox="0 0 28 28" fill="none" xmlns="http://www.w3.org/2000/svg">
<path d="M23.5 0H4.5C3.30693 0.00142521 2.16311 0.512453 1.31948 1.42097C0.475854 2.32948 0.00132343 3.56127 0 4.8461V17.769C0.00132343 19.0539 0.475854 20.2857 1.31948 21.1942C2.16311 22.1027 3.30693 22.6137 4.5 22.6151H6V26.9228C5.99995 27.1276 6.05411 27.3281 6.15612 27.5009C6.25814 27.6737 6.40378 27.8116 6.57598 27.8984C6.74818 27.9852 6.9398 28.0174 7.12836 27.9911C7.31693 27.9648 7.49463 27.8812 7.64062 27.75L13.3588 22.6151H23.5C24.6931 22.6137 25.8369 22.1027 26.6805 21.1942C27.5241 20.2857 27.9987 19.0539 28 17.769V4.8461C27.9987 3.56127 27.5241 2.32948 26.6805 1.42097C25.8369 0.512453 24.6931 0.00142521 23.5 0ZM8 13.4614C7.60444 13.4614 7.21776 13.3351 6.88886 13.0984C6.55996 12.8617 6.30362 12.5254 6.15224 12.1318C6.00087 11.7382 5.96126 11.3052 6.03843 10.8874C6.1156 10.4696 6.30608 10.0858 6.58579 9.78459C6.86549 9.48337 7.22186 9.27824 7.60982 9.19514C7.99778 9.11203 8.39991 9.15468 8.76537 9.3177C9.13082 9.48072 9.44318 9.75678 9.66294 10.111C9.8827 10.4652 10 10.8816 10 11.3076C10 11.8788 9.78929 12.4266 9.41421 12.8306C9.03914 13.2345 8.53043 13.4614 8 13.4614ZM14 13.4614C13.6044 13.4614 13.2178 13.3351 12.8889 13.0984C12.56 12.8617 12.3036 12.5254 12.1522 12.1318C12.0009 11.7382 11.9613 11.3052 12.0384 10.8874C12.1156 10.4696 12.3061 10.0858 12.5858 9.78459C12.8655 9.48337 13.2219 9.27824 13.6098 9.19514C13.9978 9.11203 14.3999 9.15468 14.7654 9.3177C15.1308 9.48072 15.4432 9.75678 15.6629 10.111C15.8827 10.4652 16 10.8816 16 11.3076C16 11.8788 15.7893 12.4266 15.4142 12.8306C15.0391 13.2345 14.5304 13.4614 14 13.4614ZM20 13.4614C19.6044 13.4614 19.2178 13.3351 18.8889 13.0984C18.56 12.8617 18.3036 12.5254 18.1522 12.1318C18.0009 11.7382 17.9613 11.3052 18.0384 10.8874C18.1156 10.4696 18.3061 10.0858 18.5858 9.78459C18.8655 9.48337 19.2219 9.27824 19.6098 9.19514C19.9978 9.11203 20.3999 9.15468 20.7654 9.3177C21.1308 9.48072 21.4432 9.75678 21.6629 10.111C21.8827 10.4652 22 10.8816 22 11.3076C22 11.8788 21.7893 12.4266 21.4142 12.8306C21.0391 13.2345 20.5304 13.4614 20 13.4614Z" fill="white"/>
</svg>
