<svg width="36" height="40" viewBox="0 0 36 40" fill="none" xmlns="http://www.w3.org/2000/svg">
<path d="M30.375 31.25L6.75 5" stroke="white" stroke-width="3" stroke-miterlimit="10" stroke-linecap="round"/>
<path d="M28.125 18.7499V16.2851C28.125 15.6124 27.6595 15.0351 27.0541 15.0015C26.902 14.9934 26.75 15.0196 26.6073 15.0787C26.4646 15.1378 26.3342 15.2284 26.2239 15.3451C26.1137 15.4619 26.0259 15.6022 25.9659 15.7578C25.9059 15.9133 25.875 16.0807 25.875 16.2499V18.7499C25.8753 19.3906 25.8121 20.0294 25.6866 20.6546C25.6815 20.6801 25.6822 20.7067 25.6887 20.7318C25.6952 20.7569 25.7073 20.7798 25.7238 20.7984L27.3122 22.5632C27.3289 22.5818 27.3495 22.5953 27.3721 22.6027C27.3947 22.6101 27.4187 22.611 27.4417 22.6054C27.4647 22.5998 27.4861 22.5878 27.5039 22.5706C27.5217 22.5534 27.5353 22.5316 27.5435 22.507C27.9293 21.3008 28.126 20.03 28.125 18.7499ZM18 27.5C15.9135 27.4925 13.9143 26.5683 12.4389 24.9289C10.9635 23.2896 10.1317 21.0683 10.125 18.7499V16.2851C10.125 15.6124 9.65953 15.0351 9.05414 15.0015C8.90203 14.9934 8.75002 15.0196 8.60731 15.0787C8.4646 15.1378 8.33417 15.2284 8.22392 15.3451C8.11367 15.4619 8.0259 15.6022 7.96592 15.7578C7.90595 15.9133 7.87501 16.0807 7.875 16.2499V18.7499C7.875 24.5312 11.8195 29.3062 16.875 29.9304V33.75H13.5316C12.9263 33.75 12.4066 34.2671 12.3764 34.9398C12.3691 35.1088 12.3927 35.2777 12.4459 35.4363C12.499 35.5948 12.5806 35.7398 12.6857 35.8623C12.7907 35.9848 12.9171 36.0823 13.057 36.1489C13.197 36.2156 13.3477 36.2499 13.5 36.25H22.4684C23.0738 36.25 23.5934 35.7328 23.6236 35.0601C23.6309 34.8911 23.6073 34.7222 23.5541 34.5636C23.501 34.4051 23.4194 34.2601 23.3143 34.1376C23.2093 34.0151 23.0829 33.9176 22.943 33.851C22.803 33.7843 22.6523 33.75 22.5 33.75H19.125V29.9304C20.4055 29.7721 21.6468 29.3419 22.7813 28.6632C22.8197 28.64 22.8528 28.6071 22.8778 28.5671C22.9028 28.5271 22.9191 28.4812 22.9253 28.433C22.9315 28.3848 22.9275 28.3357 22.9136 28.2895C22.8997 28.2434 22.8763 28.2015 22.8452 28.1671L21.5515 26.7304C21.5206 26.6963 21.481 26.6736 21.4381 26.6655C21.3951 26.6574 21.351 26.6642 21.3117 26.6851C20.2749 27.2232 19.1443 27.5014 18 27.5ZM18.0802 3.74995C17.125 3.73047 16.1813 3.98276 15.3386 4.48283C14.496 4.98289 13.7824 5.71411 13.2659 6.60698C13.231 6.66709 13.2158 6.73866 13.2227 6.80975C13.2296 6.88084 13.2582 6.94715 13.3038 6.99761L23.3852 18.2031C23.4049 18.2248 23.43 18.2396 23.4573 18.2456C23.4845 18.2515 23.5128 18.2484 23.5384 18.2365C23.5641 18.2246 23.586 18.2046 23.6014 18.1789C23.6168 18.1532 23.625 18.123 23.625 18.0921V10.071C23.625 6.64057 21.1641 3.79682 18.0802 3.74995Z" fill="white"/>
<path d="M12.6148 16.7969C12.5951 16.7751 12.57 16.7603 12.5427 16.7544C12.5155 16.7484 12.4872 16.7516 12.4616 16.7635C12.4359 16.7753 12.414 16.7954 12.3986 16.8211C12.3832 16.8468 12.375 16.877 12.375 16.9078V18.6719C12.376 20.3372 12.9686 21.9347 14.0238 23.1172C14.7159 23.9167 15.59 24.4929 16.5532 24.7844C17.5165 25.0759 18.5328 25.0718 19.4941 24.7727C19.5178 24.7653 19.5394 24.751 19.5566 24.7315C19.5738 24.7119 19.586 24.6877 19.5922 24.6612C19.5983 24.6347 19.598 24.6068 19.5914 24.5805C19.5849 24.5541 19.5722 24.5302 19.5546 24.511L12.6148 16.7969Z" fill="white"/>
</svg>
