<svg width="35" height="38" viewBox="0 0 35 38" fill="none" xmlns="http://www.w3.org/2000/svg">
<path d="M13.125 33.25H21.875M26.25 15.4375V17.8125C26.25 23.0375 22.3125 27.3125 17.5 27.3125M17.5 27.3125C12.6875 27.3125 8.75 23.0375 8.75 17.8125V15.4375M17.5 27.3125V33.25" stroke="white" stroke-width="3" stroke-linecap="round" stroke-linejoin="round"/>
<path d="M17.5 23.75C16.7782 23.7482 16.064 23.5889 15.4 23.2817C14.7359 22.9744 14.1355 22.5254 13.6343 21.9614C12.6084 20.838 12.0323 19.3203 12.0313 17.7383V9.50004C12.0285 8.71947 12.168 7.94601 12.4419 7.22427C12.7157 6.50252 13.1184 5.84677 13.6268 5.29481C14.1352 4.74286 14.7392 4.30562 15.4039 4.00831C16.0687 3.711 16.7811 3.5595 17.5 3.56254C20.5666 3.56254 22.9688 6.17059 22.9688 9.50004V17.7383C22.9688 21.0529 20.5154 23.75 17.5 23.75Z" fill="white"/>
</svg>
