<svg width="29" height="28" viewBox="0 0 29 28" fill="none" xmlns="http://www.w3.org/2000/svg">
<path d="M23.2372 27.9998C21.9734 27.9998 20.1981 27.5585 17.5396 26.1247C14.3069 24.3747 11.8064 22.7591 8.59118 19.6634C5.49117 16.6727 3.9826 14.7365 1.87126 11.0277C-0.513962 6.84013 -0.107361 4.6451 0.347152 3.70696C0.888423 2.5857 1.68738 1.91507 2.72007 1.24944C3.30663 0.878453 3.92736 0.560438 4.57438 0.299424C4.63912 0.272548 4.69934 0.246923 4.75308 0.223798C5.07357 0.0844211 5.55915 -0.126206 6.17424 0.0987963C6.58472 0.247548 6.95118 0.551927 7.52483 1.09881C8.70125 2.21882 10.3089 4.71323 10.9019 5.93824C11.3001 6.76388 11.5636 7.30888 11.5643 7.92014C11.5643 8.63577 11.1914 9.18766 10.7388 9.78329C10.654 9.89516 10.5698 10.002 10.4882 10.1058C9.99551 10.7308 9.88738 10.9114 9.9586 11.2339C10.103 11.8821 11.1797 13.8115 12.9492 15.5159C14.7187 17.2203 16.6597 18.194 17.3337 18.3328C17.6821 18.4046 17.8731 18.2959 18.5413 17.8034C18.6371 17.7328 18.7355 17.6596 18.8384 17.5865C19.5286 17.0909 20.0738 16.7402 20.7976 16.7402H20.8015C21.4315 16.7402 21.9708 17.004 22.8643 17.439C24.0297 18.0065 26.6914 19.5384 27.8588 20.6753C28.4266 21.2278 28.7432 21.5803 28.8979 21.9759C29.131 22.5716 28.9115 23.0384 28.7684 23.351C28.7445 23.4028 28.7179 23.4597 28.6901 23.5228C28.4176 24.1463 28.0862 24.7442 27.7001 25.3091C27.0119 26.3029 26.3146 27.0722 25.1505 27.5954C24.5527 27.8683 23.8985 28.0066 23.2372 27.9998Z" fill="white"/>
</svg>
