<svg width="28" height="31" viewBox="0 0 28 31" fill="none" xmlns="http://www.w3.org/2000/svg">
<path d="M20.4963 18.6957L25.0195 22.2208C25.1528 22.2863 25.2987 22.314 25.444 22.3013C25.5893 22.2885 25.7295 22.2358 25.8517 22.1479C25.974 22.0599 26.0745 21.9395 26.144 21.7977C26.2136 21.6558 26.25 21.497 26.25 21.3356V9.66454C26.25 9.50313 26.2136 9.34427 26.144 9.20241C26.0745 9.06055 25.974 8.94017 25.8517 8.85223C25.7295 8.76428 25.5893 8.71155 25.444 8.69882C25.2987 8.68609 25.1528 8.71377 25.0195 8.77934L20.4963 12.3044C20.3816 12.3938 20.288 12.5124 20.2234 12.6502C20.1588 12.788 20.125 12.941 20.125 13.0963V17.9038C20.125 18.0591 20.1588 18.2121 20.2234 18.3499C20.288 18.4877 20.3816 18.6063 20.4963 18.6957Z" stroke="white" stroke-width="2" stroke-linecap="round" stroke-linejoin="round"/>
<path d="M2.74477 8.51107C2.43318 8.80597 2.18294 9.17204 2.01123 9.58414C1.83951 9.99624 1.7504 10.4446 1.75 10.8984V20.1016C1.75216 20.9358 2.05247 21.7353 2.58531 22.3252C3.11814 22.9151 3.84021 23.2476 4.59375 23.25H14.6562C15.0721 23.2505 15.483 23.1492 15.8594 22.9533M11.375 7.75H14.6825C15.429 7.75255 16.1443 8.08202 16.6722 8.66647C17.2001 9.25091 17.4977 10.0429 17.5 10.8694V15.0156M22.75 25.1875L4.375 4.84375" stroke="white" stroke-width="2" stroke-miterlimit="10" stroke-linecap="round"/>
</svg>
