<svg width="75" height="45" viewBox="0 0 75 45" fill="none" xmlns="http://www.w3.org/2000/svg">
<path d="M70 42.5609C69.3001 42.5604 68.6081 42.413 67.9688 42.1281C67.82 42.0621 67.6782 41.9815 67.5453 41.8875L54.6219 32.7906C53.9665 32.3293 53.4316 31.7171 53.0623 31.0057C52.693 30.2944 52.5002 29.5046 52.5 28.7031V16.2969C52.5002 15.4954 52.693 14.7056 53.0623 13.9943C53.4316 13.2829 53.9665 12.6707 54.6219 12.2094L67.5453 3.1125C67.6782 3.0185 67.82 2.9379 67.9688 2.87188C68.73 2.53343 69.5638 2.39056 70.3943 2.45625C71.2248 2.52195 72.0257 2.79412 72.7243 3.24804C73.4229 3.70196 73.997 4.32324 74.3944 5.05544C74.7918 5.78763 75 6.60752 75 7.44062V37.5594C75 38.8855 74.4732 40.1572 73.5355 41.0949C72.5979 42.0326 71.3261 42.5594 70 42.5594V42.5609ZM39.375 45H10.625C7.80796 44.9971 5.10714 43.8768 3.11519 41.8848C1.12324 39.8929 0.00289542 37.192 0 34.375V10.625C0.00289542 7.80796 1.12324 5.10714 3.11519 3.11519C5.10714 1.12324 7.80796 0.00289542 10.625 0H39.45C42.247 0.00330813 44.9285 1.11588 46.9063 3.09368C48.8841 5.07147 49.9967 7.75298 50 10.55V34.375C49.9971 37.192 48.8768 39.8929 46.8848 41.8848C44.8929 43.8768 42.192 44.9971 39.375 45Z" fill="#2A3034"/>
</svg>
