<svg width="80" height="80" viewBox="0 0 80 80" fill="none" xmlns="http://www.w3.org/2000/svg">
<path d="M40 44.0625C42.2437 44.0625 44.0625 42.2437 44.0625 40C44.0625 37.7563 42.2437 35.9375 40 35.9375C37.7563 35.9375 35.9375 37.7563 35.9375 40C35.9375 42.2437 37.7563 44.0625 40 44.0625Z" fill="#2A3034" stroke="#2A3034" stroke-width="3" stroke-miterlimit="10"/>
<path d="M54.0625 44.0625C56.3062 44.0625 58.125 42.2437 58.125 40C58.125 37.7563 56.3062 35.9375 54.0625 35.9375C51.8188 35.9375 50 37.7563 50 40C50 42.2437 51.8188 44.0625 54.0625 44.0625Z" fill="#2A3034" stroke="#2A3034" stroke-width="3" stroke-miterlimit="10"/>
<path d="M25.9375 44.0625C28.1812 44.0625 30 42.2437 30 40C30 37.7563 28.1812 35.9375 25.9375 35.9375C23.6938 35.9375 21.875 37.7563 21.875 40C21.875 42.2437 23.6938 44.0625 25.9375 44.0625Z" fill="#2A3034" stroke="#2A3034" stroke-width="3" stroke-miterlimit="10"/>
<path d="M25 57.5L5 40L25 22.5M55 57.5L75 40L55 22.5" stroke="#2A3034" stroke-width="3" stroke-linecap="round" stroke-linejoin="round"/>
</svg>
