<svg width="55" height="75" viewBox="0 0 55 75" fill="none" xmlns="http://www.w3.org/2000/svg">
<path d="M53.125 27.5H42.5V15C42.5 11.0218 40.9197 7.20644 38.1066 4.3934C35.2936 1.58035 31.4782 0 27.5 0C23.5218 0 19.7064 1.58035 16.8934 4.3934C14.0804 7.20644 12.5 11.0218 12.5 15V27.5H1.875C1.37772 27.5 0.900805 27.6975 0.549175 28.0492C0.197544 28.4008 0 28.8777 0 29.375V73.125C0 73.6223 0.197544 74.0992 0.549175 74.4508C0.900805 74.8025 1.37772 75 1.875 75H53.125C53.6223 75 54.0992 74.8025 54.4508 74.4508C54.8025 74.0992 55 73.6223 55 73.125V29.375C55 28.8777 54.8025 28.4008 54.4508 28.0492C54.0992 27.6975 53.6223 27.5 53.125 27.5ZM36.5625 27.5H18.4375V14.8828C18.4375 12.4793 19.3923 10.1742 21.0918 8.47466C22.7914 6.77511 25.0965 5.82031 27.5 5.82031C29.9035 5.82031 32.2086 6.77511 33.9082 8.47466C35.6077 10.1742 36.5625 12.4793 36.5625 14.8828V27.5Z" fill="#2A3034"/>
</svg>
